{
  "accessors": [
    {
      "bufferView": 2,
      "componentType": 5126,
      "count": 23633,
      "max": [
        0.14060600101947784,
        0.18871000409126282,
        0.12260700017213821
      ],
      "min": [
        -0.14060600101947784,
        -0.10672499984502792,
        -0.06392820179462433
      ],
      "type": "VEC3"
    },
    {
      "bufferView": 2,
      "byteOffset": 283596,
      "componentType": 5126,
      "count": 23633,
      "max": [
        0.999937891960144,
        0.9998844861984253,
        0.9999494552612305
      ],
      "min": [
        -0.9997569918632507,
        -0.9996782541275024,
        -0.9999998807907104
      ],
      "type": "VEC3"
    },
    {
      "bufferView": 3,
      "componentType": 5126,
      "count": 23633,
      "max": [
        1.0,
        0.9997842311859131,
        0.999958872795105,
        1.0
      ],
      "min": [
        -1.0,
        -0.9993221163749695,
        -0.9999478459358215,
        -1.0
      ],
      "type": "VEC4"
    },
    {
      "bufferView": 1,
      "componentType": 5126,
      "count": 23633,
      "max": [
        0.9798290133476257,
        0.9897310137748718
      ],
      "min": [
        0.009999999776482582,
        0.010012700222432613
      ],
      "type": "VEC2"
    },
    {
      "bufferView": 0,
      "componentType": 5125,
      "count": 131136,
      "type": "SCALAR"
    }
  ],
  "asset": {
    "extras": {
      "author": "PeterEriksson (https://sketchfab.com/PeterEriksson)",
      "license": "CC-BY-4.0 (http://creativecommons.org/licenses/by/4.0/)",
      "source": "https://sketchfab.com/3d-models/pirate-skull-ed0e7a1aa2f048d8b14bba98f64a0a58",
      "title": "Pirate Skull"
    },
    "generator": "Sketchfab-12.66.0",
    "version": "2.0"
  },
  "bufferViews": [
    {
      "buffer": 0,
      "byteLength": 524544,
      "name": "floatBufferViews",
      "target": 34963
    },
    {
      "buffer": 0,
      "byteLength": 189064,
      "byteOffset": 524544,
      "byteStride": 8,
      "name": "floatBufferViews",
      "target": 34962
    },
    {
      "buffer": 0,
      "byteLength": 567192,
      "byteOffset": 713608,
      "byteStride": 12,
      "name": "floatBufferViews",
      "target": 34962
    },
    {
      "buffer": 0,
      "byteLength": 378128,
      "byteOffset": 1280800,
      "byteStride": 16,
      "name": "floatBufferViews",
      "target": 34962
    }
  ],
  "buffers": [
    {
      "byteLength": 1658928,
      "uri": "scene.bin"
    }
  ],
  "images": [
    {
      "uri": "textures/Collada_visual_scene_group_baseColor.jpeg"
    },
    {
      "uri": "textures/Collada_visual_scene_group_normal.png"
    }
  ],
  "materials": [
    {
      "doubleSided": true,
      "name": "Collada_visual_scene_group",
      "normalTexture": {
        "index": 1,
        "scale": 0.15
      },
      "pbrMetallicRoughness": {
        "baseColorTexture": {
          "index": 0
        },
        "metallicFactor": 0.0,
        "roughnessFactor": 0.6
      }
    }
  ],
  "meshes": [
    {
      "name": "Material-PirateSkull",
      "primitives": [
        {
          "attributes": {
            "NORMAL": 1,
            "POSITION": 0,
            "TANGENT": 2,
            "TEXCOORD_0": 3
          },
          "indices": 4,
          "material": 0,
          "mode": 4
        }
      ]
    }
  ],
  "nodes": [
    {
      "children": [
        1
      ],
      "matrix": [
        1.0,
        0.0,
        0.0,
        0.0,
        0.0,
        2.220446049250313e-16,
        -1.0,
        0.0,
        0.0,
        1.0,
        2.220446049250313e-16,
        0.0,
        0.0,
        0.0,
        0.0,
        1.0
      ],
      "name": "Sketchfab_model"
    },
    {
      "children": [
        2,
        4,
        6,
        8
      ],
      "matrix": [
        1.0,
        0.0,
        0.0,
        0.0,
        0.0,
        -4.371139006309477e-08,
        0.999999999999999,
        0.0,
        0.0,
        -0.999999999999999,
        -4.371139006309477e-08,
        0.0,
        0.0,
        0.0,
        0.0,
        1.0
      ],
      "name": "Collada visual scene group"
    },
    {
      "children": [
        3
      ],
      "matrix": [
        0.7071067811865475,
        0.0,
        0.7071067811865476,
        0.0,
        0.35355339059327373,
        0.8660254037844387,
        -0.3535533905932737,
        0.0,
        -0.6123724356957946,
        0.49999999999999994,
        0.6123724356957945,
        0.0,
        -2.0,
        2.0,
        2.0,
        1.0
      ],
      "name": "Directional_Light"
    },
    {
      "name": "Directional_Light"
    },
    {
      "children": [
        5
      ],
      "matrix": [
        1.0,
        0.0,
        0.0,
        0.0,
        0.0,
        1.0,
        0.0,
        0.0,
        0.0,
        0.0,
        1.0,
        0.0,
        3.501770038383256e-07,
        0.04099230095744133,
        0.7054759860038757,
        1.0
      ],
      "name": "Camera"
    },
    {
      "name": "Camera-camera003"
    },
    {
      "children": [
        7
      ],
      "name": "Pirate_Skull"
    },
    {
      "mesh": 0,
      "name": "Material-PirateSkull"
    },
    {
      "children": [
        9
      ],
      "name": "Render"
    },
    {
      "name": "Render"
    }
  ],
  "samplers": [
    {
      "magFilter": 9729,
      "minFilter": 9987,
      "wrapS": 10497,
      "wrapT": 10497
    }
  ],
  "scene": 0,
  "scenes": [
    {
      "name": "Sketchfab_Scene",
      "nodes": [
        0
      ]
    }
  ],
  "textures": [
    {
      "sampler": 0,
      "source": 0
    },
    {
      "sampler": 0,
      "source": 1
    }
  ]
}
