{
  "accessors": [
    {
      "bufferView": 2,
      "componentType": 5126,
      "count": 5986,
      "max": [
        22.740400314331055,
        25.376100540161133,
        20.660999298095703
      ],
      "min": [
        -23.267099380493164,
        -10.568900108337402,
        -26.199800491333008
      ],
      "type": "VEC3"
    },
    {
      "bufferView": 2,
      "byteOffset": 71832,
      "componentType": 5126,
      "count": 5986,
      "max": [
        0.999901294708252,
        0.9997976422309875,
        0.9994989037513733
      ],
      "min": [
        -0.9999181032180786,
        -0.9998830556869507,
        -0.9999852180480957
      ],
      "type": "VEC3"
    },
    {
      "bufferView": 3,
      "componentType": 5126,
      "count": 5986,
      "max": [
        0.9996097683906555,
        0.9998717308044434,
        0.9997609853744507,
        1.0
      ],
      "min": [
        -0.9999138116836548,
        -0.9992826581001282,
        -0.999698281288147,
        -1.0
      ],
      "type": "VEC4"
    },
    {
      "bufferView": 1,
      "componentType": 5126,
      "count": 5986,
      "max": [
        0.9980000257492065,
        0.683899998664856
      ],
      "min": [
        0.0019000000320374966,
        0.0019000000320374966
      ],
      "type": "VEC2"
    },
    {
      "bufferView": 0,
      "componentType": 5125,
      "count": 33168,
      "type": "SCALAR"
    }
  ],
  "asset": {
    "extras": {
      "author": "vicente betoret ferrero (https://sketchfab.com/deathcow)",
      "license": "CC-BY-4.0 (http://creativecommons.org/licenses/by/4.0/)",
      "source": "https://sketchfab.com/3d-models/demon-skull-low-poly-232f50f6c2c348b1b9be149ed625f631",
      "title": "Demon Skull low poly"
    },
    "generator": "Sketchfab-12.68.0",
    "version": "2.0"
  },
  "bufferViews": [
    {
      "buffer": 0,
      "byteLength": 132672,
      "name": "floatBufferViews",
      "target": 34963
    },
    {
      "buffer": 0,
      "byteLength": 47888,
      "byteOffset": 132672,
      "byteStride": 8,
      "name": "floatBufferViews",
      "target": 34962
    },
    {
      "buffer": 0,
      "byteLength": 143664,
      "byteOffset": 180560,
      "byteStride": 12,
      "name": "floatBufferViews",
      "target": 34962
    },
    {
      "buffer": 0,
      "byteLength": 95776,
      "byteOffset": 324224,
      "byteStride": 16,
      "name": "floatBufferViews",
      "target": 34962
    }
  ],
  "buffers": [
    {
      "byteLength": 420000,
      "uri": "scene.bin"
    }
  ],
  "images": [
    {
      "uri": "textures/04___Default_baseColor.png"
    },
    {
      "uri": "textures/04___Default_normal.png"
    }
  ],
  "materials": [
    {
      "doubleSided": true,
      "name": "04___Default",
      "normalTexture": {
        "index": 1
      },
      "pbrMetallicRoughness": {
        "baseColorTexture": {
          "index": 0
        },
        "metallicFactor": 0.0,
        "roughnessFactor": 0.6
      }
    }
  ],
  "meshes": [
    {
      "name": "Object_0",
      "primitives": [
        {
          "attributes": {
            "NORMAL": 1,
            "POSITION": 0,
            "TANGENT": 2,
            "TEXCOORD_0": 3
          },
          "indices": 4,
          "material": 0,
          "mode": 4
        }
      ]
    }
  ],
  "nodes": [
    {
      "children": [
        1
      ],
      "matrix": [
        1.0,
        0.0,
        0.0,
        0.0,
        0.0,
        2.220446049250313e-16,
        -1.0,
        0.0,
        0.0,
        1.0,
        2.220446049250313e-16,
        0.0,
        0.0,
        0.0,
        0.0,
        1.0
      ],
      "name": "Sketchfab_model"
    },
    {
      "children": [
        2
      ],
      "name": "demon skull.OBJ.cleaner.materialmerger.gles"
    },
    {
      "mesh": 0,
      "name": "Object_2"
    }
  ],
  "samplers": [
    {
      "magFilter": 9729,
      "minFilter": 9987,
      "wrapS": 10497,
      "wrapT": 10497
    }
  ],
  "scene": 0,
  "scenes": [
    {
      "name": "Sketchfab_Scene",
      "nodes": [
        0
      ]
    }
  ],
  "textures": [
    {
      "sampler": 0,
      "source": 0
    },
    {
      "sampler": 0,
      "source": 1
    }
  ]
}
