{
  "accessors": [
    {
      "bufferView": 2,
      "componentType": 5126,
      "count": 14437,
      "max": [
        2.107515573501587,
        -0.18344849348068237,
        3.5722618103027344
      ],
      "min": [
        -2.107515811920166,
        -1.8505349159240723,
        0.03649541363120079
      ],
      "type": "VEC3"
    },
    {
      "bufferView": 2,
      "byteOffset": 173244,
      "componentType": 5126,
      "count": 14437,
      "max": [
        0.9999930262565613,
        0.9943257570266724,
        0.9999827146530151
      ],
      "min": [
        -0.9999930262565613,
        -0.9999982714653015,
        -0.99924236536026
      ],
      "type": "VEC3"
    },
    {
      "bufferView": 1,
      "componentType": 5126,
      "count": 14437,
      "max": [
        0.9775169491767883,
        0.9324875473976135
      ],
      "min": [
        0.004455051384866238,
        0.004455051384866238
      ],
      "type": "VEC2"
    },
    {
      "bufferView": 0,
      "componentType": 5125,
      "count": 68544,
      "type": "SCALAR"
    }
  ],
  "asset": {
    "extras": {
      "author": "Ahbangkun (https://sketchfab.com/Ahbangkun)",
      "license": "CC-BY-4.0 (http://creativecommons.org/licenses/by/4.0/)",
      "source": "https://sketchfab.com/3d-models/skull-mask-5f7a012c4541474ca7b293b81a075502",
      "title": "Skull Mask"
    },
    "generator": "Sketchfab-13.17.0",
    "version": "2.0"
  },
  "bufferViews": [
    {
      "buffer": 0,
      "byteLength": 274176,
      "name": "floatBufferViews",
      "target": 34963
    },
    {
      "buffer": 0,
      "byteLength": 115496,
      "byteOffset": 274176,
      "byteStride": 8,
      "name": "floatBufferViews",
      "target": 34962
    },
    {
      "buffer": 0,
      "byteLength": 346488,
      "byteOffset": 389672,
      "byteStride": 12,
      "name": "floatBufferViews",
      "target": 34962
    }
  ],
  "buffers": [
    {
      "byteLength": 736160,
      "uri": "scene.bin"
    }
  ],
  "images": [
    {
      "uri": "textures/wAnimeMaterial_baseColor.png"
    },
    {
      "uri": "textures/wAnimeMaterial_metallicRoughness.png"
    }
  ],
  "materials": [
    {
      "doubleSided": true,
      "name": "wAnimeMaterial",
      "pbrMetallicRoughness": {
        "baseColorTexture": {
          "index": 0
        },
        "metallicRoughnessTexture": {
          "index": 1
        },
        "roughnessFactor": 0.30268369401872686
      }
    }
  ],
  "meshes": [
    {
      "name": "Gluttony Mask_wAnimeMaterial_0",
      "primitives": [
        {
          "attributes": {
            "NORMAL": 1,
            "POSITION": 0,
            "TEXCOORD_0": 2
          },
          "indices": 3,
          "material": 0,
          "mode": 4
        }
      ]
    }
  ],
  "nodes": [
    {
      "children": [
        1
      ],
      "matrix": [
        1.0,
        0.0,
        0.0,
        0.0,
        0.0,
        2.220446049250313e-16,
        -1.0,
        0.0,
        0.0,
        1.0,
        2.220446049250313e-16,
        0.0,
        0.0,
        0.0,
        0.0,
        1.0
      ],
      "name": "Sketchfab_model"
    },
    {
      "children": [
        2
      ],
      "matrix": [
        0.009999999776482582,
        0.0,
        0.0,
        0.0,
        0.0,
        0.0,
        0.009999999776482582,
        0.0,
        0.0,
        -0.009999999776482582,
        0.0,
        0.0,
        0.0,
        0.0,
        0.0,
        1.0
      ],
      "name": "d1955482c34b4a9eacdfcd8e4d01331f.fbx"
    },
    {
      "children": [
        3,
        5,
        7,
        10
      ],
      "name": "RootNode"
    },
    {
      "children": [
        4
      ],
      "matrix": [
        21.597657514939065,
        -3.350223098100454,
        -97.58237672253324,
        0.0,
        0.7240690964692703,
        99.94387953717786,
        -3.2710424576369306,
        0.0,
        97.63717791367102,
        -9.528625760634875e-05,
        21.609789793610584,
        0.0,
        -316.84326171875,
        233.59730529785156,
        1321.9232177734375,
        1.0
      ],
      "name": "Camera"
    },
    {
      "name": "Object_4"
    },
    {
      "children": [
        6
      ],
      "matrix": [
        99.99999999997875,
        0.0,
        -6.516827966151588e-05,
        0.0,
        -6.516827966151501e-05,
        -1.629206793918314e-05,
        -99.99999999997745,
        0.0,
        -1.0617260404688505e-11,
        99.99999999999868,
        -1.629206793918314e-05,
        0.0,
        0.0,
        0.0,
        0.0,
        1.0
      ],
      "name": "Gluttony Mask"
    },
    {
      "mesh": 0,
      "name": "Gluttony Mask_wAnimeMaterial_0"
    },
    {
      "children": [
        8
      ],
      "matrix": [
        100.0,
        0.0,
        0.0,
        0.0,
        0.0,
        99.99999999999972,
        -7.5497901264043296e-06,
        0.0,
        0.0,
        7.5497901264043296e-06,
        99.99999999999972,
        0.0,
        242.9359893798828,
        558.821044921875,
        626.8717651367188,
        1.0
      ],
      "name": "Point"
    },
    {
      "children": [
        9
      ],
      "matrix": [
        1.0,
        0.0,
        0.0,
        0.0,
        0.0,
        2.220446049250313e-16,
        1.0,
        0.0,
        0.0,
        -1.0,
        2.220446049250313e-16,
        0.0,
        0.0,
        0.0,
        0.0,
        1.0
      ],
      "name": "Object_8"
    },
    {
      "name": "Object_9"
    },
    {
      "children": [
        11
      ],
      "matrix": [
        100.0,
        0.0,
        0.0,
        0.0,
        0.0,
        99.99999999999972,
        -7.5497901264043296e-06,
        0.0,
        0.0,
        7.5497901264043296e-06,
        99.99999999999972,
        0.0,
        -553.5425415039063,
        653.9686889648438,
        -116.22634887695313,
        1.0
      ],
      "name": "Point.001"
    },
    {
      "children": [
        12
      ],
      "matrix": [
        1.0,
        0.0,
        0.0,
        0.0,
        0.0,
        2.220446049250313e-16,
        1.0,
        0.0,
        0.0,
        -1.0,
        2.220446049250313e-16,
        0.0,
        0.0,
        0.0,
        0.0,
        1.0
      ],
      "name": "Object_11"
    },
    {
      "name": "Object_12"
    }
  ],
  "samplers": [
    {
      "magFilter": 9729,
      "minFilter": 9987,
      "wrapS": 10497,
      "wrapT": 10497
    }
  ],
  "scene": 0,
  "scenes": [
    {
      "name": "Sketchfab_Scene",
      "nodes": [
        0
      ]
    }
  ],
  "textures": [
    {
      "sampler": 0,
      "source": 0
    },
    {
      "sampler": 0,
      "source": 1
    }
  ]
}
